<svg width="27" height="143" viewBox="0 0 27 143" fill="none" xmlns="http://www.w3.org/2000/svg">
<path fill-rule="evenodd" clip-rule="evenodd" d="M3 0H20C21.65 0 23 1.35 23 3V20C23 21.65 21.65 23 20 23H3C1.35 23 0 21.65 0 20V3C0 1.35 1.35 0 3 0ZM21 3C21 2.458 20.542 2 20 2H3C2.458 2 2 2.458 2 3V20C2 20.542 2.458 21 3 21H20C20.542 21 21 20.542 21 20V3Z" fill="white"/>
<path fill-rule="evenodd" clip-rule="evenodd" d="M3 24H20C21.65 24 23 25.35 23 27V44C23 45.65 21.65 47 20 47H3C1.35 47 0 45.65 0 44V27C0 25.35 1.35 24 3 24ZM21 27C21 26.458 20.542 26 20 26H3C2.458 26 2 26.458 2 27V44C2 44.542 2.458 45 3 45H20C20.542 45 21 44.542 21 44V27Z" fill="white"/>
<path fill-rule="evenodd" clip-rule="evenodd" d="M3 48H20C21.65 48 23 49.35 23 51V68C23 69.65 21.65 71 20 71H3C1.35 71 0 69.65 0 68V51C0 49.35 1.35 48 3 48ZM21 51C21 50.458 20.542 50 20 50H3C2.458 50 2 50.458 2 51V68C2 68.542 2.458 69 3 69H20C20.542 69 21 68.542 21 68V51Z" fill="#6A6A6A"/>
<path d="M7.28499 79.486L4.45599 82.315L12.239 90.098L26.171 76.166L23.343 73.337L12.239 84.439L7.28499 79.486Z" fill="white"/>
<path d="M21 92C21 92.542 20.542 93 20 93H3C2.458 93 2 92.542 2 92V75C2 74.458 2.458 74 3 74H19.908L21.493 72.415C21.041 72.1465 20.5257 72.0033 20 72H3C1.35 72 0 73.35 0 75V92C0 93.65 1.35 95 3 95H20C21.65 95 23 93.65 23 92V82.171L21 84.171V92Z" fill="white"/>
<path d="M7.28499 103.486L4.45599 106.315L12.239 114.098L26.171 100.166L23.343 97.337L12.239 108.439L7.28499 103.486Z" fill="white"/>
<path d="M21 116C21 116.542 20.542 117 20 117H3C2.458 117 2 116.542 2 116V99C2 98.458 2.458 98 3 98H19.908L21.493 96.415C21.041 96.1465 20.5257 96.0033 20 96H3C1.35 96 0 97.35 0 99V116C0 117.65 1.35 119 3 119H20C21.65 119 23 117.65 23 116V106.171L21 108.171V116Z" fill="white"/>
<path d="M7.28499 127.486L4.45599 130.315L12.239 138.098L26.171 124.166L23.343 121.337L12.239 132.439L7.28499 127.486Z" fill="#6A6A6A"/>
<path d="M21 140C21 140.542 20.542 141 20 141H3C2.458 141 2 140.542 2 140V123C2 122.458 2.458 122 3 122H19.908L21.493 120.415C21.041 120.147 20.5257 120.003 20 120H3C1.35 120 0 121.35 0 123V140C0 141.65 1.35 143 3 143H20C21.65 143 23 141.65 23 140V130.171L21 132.171V140Z" fill="#6A6A6A"/>
</svg>
